<svg xmlns="http://www.w3.org/2000/svg" shape-rendering="geometricPrecision" text-rendering="geometricPrecision" image-rendering="optimizeQuality" fill-rule="evenodd" clip-rule="evenodd" viewBox="0 0 512 350.259"><path fill="#424C57" d="M235.685 65.227L46.41 49.97C21.075 47.927-2.386 70.905.195 96.184l15.258 149.398c2.581 25.276 20.807 46.211 46.214 46.211h48.071l71.815 58.466-5.191-58.466h59.323c25.41 0 46.215-20.794 46.215-46.211v-134.14c0-25.421-20.88-44.172-46.215-46.215z"/><path fill="#337EC6" d="M276.314 15.385L465.589.127c25.336-2.042 48.796 20.936 46.215 46.214l-15.257 149.398c-2.581 25.277-20.807 46.211-46.215 46.211h-50.099l-71.816 58.467 5.191-58.467h-57.294c-25.411 0-46.215-20.793-46.215-46.211V61.599c0-25.421 20.88-44.172 46.215-46.214z"/><path fill="#fff" d="M85.799 116.905h42.64V104.89h19.049v12.015h42.796v19.726h-8.786c-1.585 12.46-5.068 22.727-10.988 33.794-5.008 9.347-11.473 18.352-18.981 26.983 11.983 14.332 26.86 26.8 44.571 38.165l-9.797 15.271c-18.595-11.93-34.388-25.068-47.366-40.199-11.608 11.23-24.797 21.692-38.611 31.246l-10.299-14.905c13.671-9.458 26.657-19.789 37.831-30.804-10.299-15.068-18.185-31.979-23.643-51.426l17.477-4.901c4.474 15.952 10.748 29.993 18.814 42.561 5.502-6.661 10.258-13.496 14.017-20.514 4.61-8.623 7.086-15.753 8.646-25.271h-77.37v-19.726zM399.067 158.594h-57.154l-7.475 25.514h-28.159c12.19-32.264 26.267-71.008 38.463-103.289 4.392-11.659 9.391-30.981 25.365-30.981 16.559 0 22.058 17.703 26.665 29.933l39.049 104.864h-29.046l-7.708-26.041zm-6.101-24.81l-22.411-58.491-22.472 58.491h44.883z"/></svg>